<svg id="visual" viewBox="0 0 900 600" width="900" height="600" xmlns="http://www.w3.org/2000/svg" xmlns:xlink="http://www.w3.org/1999/xlink" version="1.1"><rect x="0" y="0" width="900" height="600" fill="#333333"></rect><path d="M0 83L25 85.5C50 88 100 93 150 96.5C200 100 250 102 300 99.7C350 97.3 400 90.7 450 87C500 83.3 550 82.7 600 84.3C650 86 700 90 750 91.5C800 93 850 92 875 91.5L900 91L900 0L875 0C850 0 800 0 750 0C700 0 650 0 600 0C550 0 500 0 450 0C400 0 350 0 300 0C250 0 200 0 150 0C100 0 50 0 25 0L0 0Z" fill="#221a1a" stroke-linecap="round" stroke-linejoin="miter"></path></svg>